<?xml version="1.0" encoding="utf-8"?>
<!-- Generator: Adobe Illustrator 24.3.0, SVG Export Plug-In . SVG Version: 6.00 Build 0)  -->
<svg version="1.1" id="图层_1" xmlns="http://www.w3.org/2000/svg" xmlns:xlink="http://www.w3.org/1999/xlink" x="0px" y="0px"
	 viewBox="0 0 1062.2 724.9" style="enable-background:new 0 0 1062.2 724.9;" xml:space="preserve">
<style type="text/css">
	.st0{fill:url(#SVGID_1_);}
	.st1{fill:url(#SVGID_2_);}
	.st2{fill:url(#SVGID_3_);}
	.st3{fill:#FFFFFF;}
	.st4{fill:url(#SVGID_4_);}
	.st5{fill:url(#SVGID_5_);}
	.st6{fill:#F8D328;}
	.st7{fill:#F9D223;}
	.st8{fill:#FCCA00;}
	.st9{fill:#FDCA00;}
	.st10{opacity:0.59;fill:#FFD500;}
	.st11{fill:#EAB300;}
	.st12{fill:#FACD03;}
	.st13{fill:#F9CE01;}
	.st14{fill:#FBCC00;}
	.st15{fill:#F9B900;}
	.st16{fill:#FFE100;}
	.st17{fill:url(#SVGID_6_);}
	.st18{fill:url(#SVGID_7_);}
	.st19{fill:url(#SVGID_8_);}
	.st20{fill:url(#SVGID_9_);}
	.st21{fill:url(#SVGID_10_);}
</style>
<g>
	<g>
		<g>
			
				<linearGradient id="SVGID_1_" gradientUnits="userSpaceOnUse" x1="16.4723" y1="-683.4669" x2="785.7195" y2="-683.4669" gradientTransform="matrix(0.9212 -0.389 0.389 0.9212 240.815 1082.8722)">
				<stop  offset="0" style="stop-color:#FFD300"/>
				<stop  offset="1" style="stop-color:#F7EB74"/>
			</linearGradient>
			<path class="st0" d="M56.4,565.9c-84.6-200.3,7.6-429.9,205.4-514c162.7-69.2,342.8-5.7,450.4,127.6
				C608.8,28.6,415.2-44.9,240.2,29C40.3,113.4-53.4,343.9,31,543.8c25.6,60.7,64.8,111.5,112.4,150.6
				C107.3,658.8,77.4,615.6,56.4,565.9z"/>
			
				<linearGradient id="SVGID_2_" gradientUnits="userSpaceOnUse" x1="3018.3835" y1="-312.5396" x2="3063.7046" y2="-312.5396" gradientTransform="matrix(0.632 -0.775 0.775 0.632 -935.3074 2772.4143)">
				<stop  offset="0" style="stop-color:#FFD300"/>
				<stop  offset="1" style="stop-color:#F7EB74"/>
			</linearGradient>
			<circle class="st1" cx="744.4" cy="218.1" r="22.7"/>
		</g>
	</g>
	<g>
		<g>
			<linearGradient id="SVGID_3_" gradientUnits="userSpaceOnUse" x1="848.9316" y1="481.6453" x2="976.4187" y2="647.765">
				<stop  offset="0" style="stop-color:#00DADB"/>
				<stop  offset="0.9987" style="stop-color:#00B9DE"/>
			</linearGradient>
			<circle class="st2" cx="947.9" cy="610.6" r="114.3"/>
		</g>
		<path class="st3" d="M995.9,542.8c0,0,1.4-4.5-3.5-8.2c0,0-0.1-0.1-0.1-0.1c-0.1-0.1-0.2-0.2-0.3-0.3c-0.1-0.1-0.3-0.2-0.4-0.4
			c-0.2-0.2-0.4-0.3-0.6-0.4c-0.2-0.2-0.5-0.3-0.7-0.5c-0.3-0.2-0.6-0.4-0.9-0.5c-0.3-0.2-0.7-0.4-1-0.5c-0.4-0.2-0.8-0.4-1.2-0.5
			c-0.4-0.2-0.9-0.3-1.3-0.5c-0.5-0.2-1-0.3-1.5-0.4c-0.6-0.1-1.1-0.3-1.7-0.4c-0.6-0.1-1.2-0.2-1.8-0.3c-0.3,0-0.7-0.1-1-0.1
			c-0.1,0-0.2,0-0.3,0c-0.2,0-0.3,0-0.5,0c-0.2,0-0.3,0-0.5,0c-0.3,0-0.7-0.1-1-0.1c-0.1,0-0.2,0-0.3,0c-0.1,0-0.3,0-0.4,0
			c-0.1,0-0.3,0-0.4,0c-0.2,0-0.3,0-0.5,0c-0.2,0-0.3,0-0.5,0c-0.2,0-0.4,0-0.6,0c-0.2,0-0.4,0-0.6,0c-0.2,0-0.4,0-0.6,0.1
			c-0.2,0-0.4,0.1-0.7,0.1c-0.2,0-0.5,0.1-0.7,0.1c-0.2,0-0.5,0.1-0.7,0.2c-0.3,0.1-0.5,0.1-0.8,0.2c-0.3,0.1-0.5,0.1-0.8,0.2
			c-0.3,0.1-0.5,0.2-0.8,0.3c-0.3,0.1-0.6,0.2-0.8,0.3c-0.3,0.1-0.6,0.2-0.9,0.4c-0.3,0.1-0.6,0.3-0.9,0.4c-0.3,0.2-0.6,0.3-0.9,0.5
			c-0.3,0.2-0.6,0.3-0.9,0.5c-0.3,0.2-0.6,0.4-0.9,0.6c-0.3,0.2-0.6,0.4-0.9,0.6c-0.3,0.2-0.6,0.5-0.9,0.7c-0.3,0.3-0.6,0.5-0.9,0.8
			c-0.3,0.3-0.6,0.6-0.9,0.9c-0.3,0.3-0.6,0.6-0.9,0.9c-0.3,0.3-0.6,0.7-0.9,1c-0.3,0.4-0.6,0.7-0.9,1.1c-0.3,0.4-0.6,0.8-0.9,1.2
			c-0.3,0.4-0.6,0.8-0.9,1.3c-0.3,0.4-0.6,0.9-0.9,1.3c-0.3,0.5-0.6,1-0.9,1.4c-0.3,0.5-0.6,1-0.9,1.5c-0.3,0.5-0.6,1.1-0.9,1.6
			c-0.3,0.6-0.6,1.2-0.9,1.7c-0.3,0.6-0.6,1.2-0.8,1.8c0,0-4.6,13.3-7,27l-28.7-2.6l-0.8,11.2l27.7,2.7c-0.5,3.4-1.2,9.9-1.8,13.7
			l-27.4-2.5l-1,9.9l27.2,3.1c-0.8,5.3-1.8,9.1-1.7,9.3c0,0-2.8,20.5-10.5,35.6c-0.1,0.2-0.2,0.4-0.2,0.7c-0.3,0.8-0.7,1.5-1.2,2.1
			c-0.6,0.9-1.4,1.7-2.4,2.2c-0.5,0.3-1.1,0.5-1.7,0.7c-0.8,0.2-1.7,0.1-2.5-0.1c-0.1,0-0.2-0.1-0.3-0.1c-0.4-0.2-0.9-0.4-1.3-0.6
			c-0.3-0.2-0.6-0.4-0.9-0.7c-0.5-0.6-1-1.3-1.2-2.1c0,0-2.1-7.2-7.5-6.8c0,0-6.1-1.6-7.3,6.1c0,0-0.6,8.8,11.5,10.4
			c0,0,7.6,2.3,14.8-0.6c0,0,7.8-3.6,13.7-15.5c0,0,8.2-13.9,12.3-39l30.9,2.4l1.8-10.3l-30.9-2.5c0.5-3.6,1.2-9.7,1.6-13.3
			l29.4,2.1l1.1-11.4l-28.8-2.6c0-0.5,0,0.3,0,0c0,0,3.8-37.2,17.6-42.7c0,0,4.3-0.9,5.3,2c0.1,0.1,0.1,0.3,0.2,0.4
			c0.2,0.4,0.4,0.7,0.6,1.1c0.3,0.5,0.6,1,1,1.4c0.4,0.5,0.8,1.1,1.3,1.5c0.5,0.5,1.1,1,1.6,1.4c0.6,0.4,1.3,0.7,2,0.9
			c0.1,0,0.1,0,0.2,0.1c0.1,0,0.2,0,0.3,0.1c0.1,0,0.1,0,0.2,0.1c0.1,0,0.1,0,0.2,0c0.1,0,0.3,0.1,0.4,0.1c0,0,0,0,0.1,0
			c0.1,0,0.1,0.1,0.2,0.1c0.1,0,0.2,0.1,0.3,0.1c0.1,0,0.2,0.1,0.4,0.1c0.1,0,0.3,0.1,0.4,0.1c0.1,0,0.3,0,0.4,0c0.2,0,0.3,0,0.5,0
			c0.2,0,0.3,0,0.5,0c0.2,0,0.3,0,0.5-0.1c0.2,0,0.4-0.1,0.5-0.1c0.2-0.1,0.4-0.1,0.5-0.2c0.2-0.1,0.4-0.2,0.5-0.3
			c0.2-0.1,0.4-0.2,0.5-0.3c0.2-0.1,0.4-0.3,0.5-0.4c0.2-0.2,0.4-0.3,0.5-0.5c0.2-0.2,0.4-0.4,0.5-0.6c0.2-0.2,0.3-0.5,0.5-0.8
			C995.8,543,995.8,542.9,995.9,542.8z"/>
	</g>
	<linearGradient id="SVGID_4_" gradientUnits="userSpaceOnUse" x1="575.139" y1="472.8218" x2="955.6626" y2="645.2468">
		<stop  offset="0" style="stop-color:#FFE100;stop-opacity:0.8"/>
		<stop  offset="1" style="stop-color:#FFE700;stop-opacity:0"/>
	</linearGradient>
	<polygon class="st4" points="627.3,166.5 1022.5,524 947.9,724.9 403.2,724.9 	"/>
	<g>
		<linearGradient id="SVGID_5_" gradientUnits="userSpaceOnUse" x1="483.7272" y1="-47.1392" x2="334.0703" y2="785.4418">
			<stop  offset="0" style="stop-color:#FFE300"/>
			<stop  offset="1" style="stop-color:#F7EB74"/>
		</linearGradient>
		<circle class="st5" cx="403.2" cy="400.7" r="324.2"/>
		<g>
			<path class="st6" d="M656.7,574.1c-110,73.2-258.5,76.8-379,22.7c-3.7-1.7-7.4-3.4-11.1-5.2c-3.9-0.3-7.9-0.7-11.8-1.1
				c-44-4.5-88.2-12.7-130.8-25.3c21.6,36.7,50,68.3,83,93.3c130.5,17.9,265.8-7.3,397.5-3.7c30.8-24.4,56.7-54.1,76.7-87.4
				c-6.1,0.8-12.1,1.6-18.2,2.3C660.8,571.3,658.8,572.7,656.7,574.1z"/>
			<path class="st7" d="M201.6,553.4c-46.2-32.4-86.8-73-120.7-118.7c1.8,17.3,5.1,34.6,9.8,51.9c6,21.7,14,42.3,23.9,61.6
				c14.1,1.7,28.3,3,42.4,3.9C171.8,552.9,186.7,553.4,201.6,553.4z"/>
			<path class="st8" d="M482.3,290.1c72.4-1.5,145.7-7.6,217.6-19.8c-6.7-15.3-14.5-29.8-23.2-43.6c-183.9,43.9-373.9,58.1-551.8,8
				c-4,6.7-7.7,13.5-11.2,20.5C233.9,282.8,358.8,292.7,482.3,290.1z"/>
			<path class="st9" d="M403,199.4c72.6-2.3,145.2-16.7,212.8-43.3c-79.1-68.6-189.9-97.7-298.4-67.8
				c-55.5,15.3-103.7,44.1-141.9,81.9C249.5,191.1,326.2,201.8,403,199.4z"/>
			<path class="st10" d="M206.9,658.5c77.6,59,180.9,82.5,282.2,54.7c43.3-11.9,82.2-32.1,115.3-58.3
				C472.7,651.3,337.4,676.5,206.9,658.5z"/>
			<path class="st11" d="M206.9,658.5c77.6,59,180.9,82.5,282.2,54.7c43.3-11.9,82.2-32.1,115.3-58.3
				C472.7,651.3,337.4,676.5,206.9,658.5z"/>
			<path class="st12" d="M80.7,368.7c-2,19.7-2.1,39.8-0.4,60c8.3,1.7,16.7,3.4,25,5c192.3,37.4,390,47.5,585.2,30
				c10.4-0.9,20.9-2,31.3-3.1c4.8-25.7,6.6-52.2,5-79.1c-88.9,6.5-178.3,7.9-267.5,9.4C333.4,392.9,203,393.8,80.7,368.7z"/>
			<path class="st13" d="M201.6,553.4c20.6,14.4,42.2,27.3,64.9,38.2c117.2,10.3,235.3-3,352.3-16.6c14.7-1.7,29.4-3.4,44.1-5.2
				c10.2-7.1,19.9-14.7,29.4-22.6c7.9-15.5,14.5-31.7,19.8-48.3c-79.6,12.2-160.1,20.7-239.9,30.6
				C382.3,540.6,292,553.9,201.6,553.4z"/>
			<path class="st14" d="M373,346.2c-7.2-36.8-151.7-55.2-271.1-64.8c-8.2,20.6-14.3,42.1-18.1,64.2
				C211.2,365.8,349.4,374.1,373,346.2z"/>
			<path class="st10" d="M266.5,591.7c-22.7-11-44.4-23.8-64.9-38.2c-14.9-0.1-29.7-0.5-44.6-1.4c-14.1-0.8-28.3-2.1-42.4-3.9
				c3,5.8,6.1,11.5,9.3,17c42.6,12.6,86.7,20.9,130.8,25.3C258.6,590.9,262.6,591.3,266.5,591.7z"/>
			<path class="st15" d="M266.5,591.7c-22.7-11-44.4-23.8-64.9-38.2c-14.9-0.1-29.7-0.5-44.6-1.4c-14.1-0.8-28.3-2.1-42.4-3.9
				c3,5.8,6.1,11.5,9.3,17c42.6,12.6,86.7,20.9,130.8,25.3C258.6,590.9,262.6,591.3,266.5,591.7z"/>
			<path class="st10" d="M681.1,567.5c4-6.6,7.7-13.4,11.2-20.3c-9.5,8-19.2,15.5-29.4,22.6C669,569.1,675,568.3,681.1,567.5z"/>
			<path class="st16" d="M681.1,567.5c4-6.6,7.7-13.4,11.2-20.3c-9.5,8-19.2,15.5-29.4,22.6C669,569.1,675,568.3,681.1,567.5z"/>
		</g>
	</g>
</g>
</svg>
